{"asset":{"generator":"Khronos glTF Blender I/O v4.4.56","version":"2.0"},"extensionsUsed":["KHR_materials_specular","KHR_materials_ior","KHR_texture_transform"],"extensionsRequired":["KHR_texture_transform"],"scene":0,"scenes":[{"name":"Scene","nodes":[0]}],"nodes":[{"mesh":0,"name":"island_tree_01_LOD0"}],"materials":[{"doubleSided":true,"name":"island_tree_01","normalTexture":{"index":0},"pbrMetallicRoughness":{"baseColorTexture":{"index":1},"metallicFactor":0,"metallicRoughnessTexture":{"index":2}}},{"alphaMode":"BLEND","doubleSided":true,"name":"island_tree_01_leaves","normalTexture":{"index":3},"pbrMetallicRoughness":{"baseColorTexture":{"index":4},"metallicFactor":0,"metallicRoughnessTexture":{"index":5}}},{"doubleSided":true,"extensions":{"KHR_materials_specular":{"specularFactor":0.4100000262260437},"KHR_materials_ior":{"ior":1.4500000476837158}},"name":"island_tree_01_branches","normalTexture":{"extensions":{"KHR_texture_transform":{"offset":[0,-2.4000000953674316],"scale":[15,3.4000000953674316]}},"index":6,"scale":0.5},"pbrMetallicRoughness":{"baseColorTexture":{"extensions":{"KHR_texture_transform":{"offset":[0,-2.4000000953674316],"scale":[15,3.4000000953674316]}},"index":7},"metallicFactor":0,"metallicRoughnessTexture":{"extensions":{"KHR_texture_transform":{"offset":[0,-2.4000000953674316],"scale":[15,3.4000000953674316]}},"index":8}}}],"meshes":[{"name":"island_trees_01_blockout_cleaned","primitives":[{"attributes":{"POSITION":0,"NORMAL":1,"TEXCOORD_0":2},"indices":3,"material":0},{"attributes":{"POSITION":4,"NORMAL":5,"TEXCOORD_0":6},"indices":7,"material":1},{"attributes":{"POSITION":8,"NORMAL":9,"TEXCOORD_0":10},"indices":11,"material":2}]}],"textures":[{"sampler":0,"source":0},{"sampler":0,"source":1},{"sampler":0,"source":2},{"sampler":0,"source":3},{"sampler":0,"source":4},{"sampler":0,"source":5},{"sampler":0,"source":6},{"sampler":0,"source":7},{"sampler":0,"source":8}],"images":[{"mimeType":"image/jpeg","name":"island_tree_01_nor_gl","uri":"textures/island_tree_01_nor_gl_1k.jpg"},{"mimeType":"image/jpeg","name":"island_tree_01_diff","uri":"textures/island_tree_01_diff_1k.jpg"},{"mimeType":"image/jpeg","name":"island_tree_01_rough","uri":"textures/island_tree_01_arm_1k.jpg"},{"mimeType":"image/jpeg","name":"island_tree_01_leaves_nor_gl","uri":"textures/island_tree_01_leaves_nor_gl_1k.jpg"},{"mimeType":"image/jpeg","name":"island_tree_01_leaves_diff-island_tree_01_leaves_alpha","uri":"textures/island_tree_01_leaves_diff_1k.jpg"},{"mimeType":"image/jpeg","name":"island_tree_01_leaves_rough","uri":"textures/island_tree_01_leaves_arm_1k.jpg"},{"mimeType":"image/jpeg","name":"island_tree_01_branches_nor_gl","uri":"textures/island_tree_01_branches_nor_gl_1k.jpg"},{"mimeType":"image/jpeg","name":"island_tree_01_branches_diff","uri":"textures/island_tree_01_branches_diff_1k.jpg"},{"mimeType":"image/jpeg","name":"island_tree_01_branches_rough","uri":"textures/island_tree_01_branches_arm_1k.jpg"}],"accessors":[{"bufferView":0,"componentType":5126,"count":1894,"type":"VEC3","min":[-1.425878882408142,-0.01643257960677147,-1.7314823865890503],"max":[1.7193102836608887,3.558035373687744,1.2515780925750732]},{"bufferView":1,"componentType":5126,"count":1894,"type":"VEC3","min":[-0.9997557997703552,-0.9931804537773132,-0.9989741444587708],"max":[0.9996417760848999,0.9977095127105713,0.9974164366722107]},{"bufferView":2,"componentType":5126,"count":1894,"type":"VEC2"},{"bufferView":3,"componentType":5125,"count":9000,"type":"SCALAR"},{"bufferView":4,"componentType":5126,"count":40344,"type":"VEC3","min":[-2.295042037963867,1.2182776927947998,-2.571692705154419],"max":[2.4022011756896973,4.965749263763428,2.2166483402252197]},{"bufferView":5,"componentType":5126,"count":40344,"type":"VEC3","min":[-0.9999723434448242,-0.9999877214431763,-0.9999192357063293],"max":[0.9999168515205383,0.9999853372573853,0.9999911785125732]},{"bufferView":6,"componentType":5126,"count":40344,"type":"VEC2"},{"bufferView":7,"componentType":5125,"count":45000,"type":"SCALAR"},{"bufferView":8,"componentType":5126,"count":14835,"type":"VEC3","min":[-2.151918649673462,0.8274965882301331,-2.4374732971191406],"max":[2.2657787799835205,4.84549617767334,2.0756969451904297]},{"bufferView":9,"componentType":5126,"count":14835,"type":"VEC3","min":[-0.9992821216583252,-0.999987006187439,-0.9998472929000854],"max":[0.9999043345451355,0.9998375773429871,0.9996979832649231]},{"bufferView":10,"componentType":5126,"count":14835,"type":"VEC2"},{"bufferView":11,"componentType":5125,"count":42546,"type":"SCALAR"}],"bufferViews":[{"buffer":0,"byteOffset":0,"byteLength":22728},{"buffer":0,"byteOffset":22728,"byteLength":22728},{"buffer":0,"byteOffset":45456,"byteLength":15152},{"buffer":0,"byteOffset":60608,"byteLength":36000},{"buffer":0,"byteOffset":96608,"byteLength":484128},{"buffer":0,"byteOffset":580736,"byteLength":484128},{"buffer":0,"byteOffset":1064864,"byteLength":322752},{"buffer":0,"byteOffset":1387616,"byteLength":180000},{"buffer":0,"byteOffset":1567616,"byteLength":178020},{"buffer":0,"byteOffset":1745636,"byteLength":178020},{"buffer":0,"byteOffset":1923656,"byteLength":118680},{"buffer":0,"byteOffset":2042336,"byteLength":170184}],"samplers":[{"magFilter":9729,"minFilter":9987}],"buffers":[{"uri":"tree-optimized.bin","byteLength":2212520}]}